<svg width="1438" height="681" viewBox="0 0 1438 681" fill="none" xmlns="http://www.w3.org/2000/svg">
<path d="M395.797 646.938C339.337 669.771 108.407 623.586 0 597.639V0H1436.31C1437.59 225.16 1439.37 676.517 1436.31 680.668C1433.26 684.82 1303.43 648.956 1238.89 630.505C1045.1 553.011 885 559.62 880.5 562.348C808.5 570.531 729.92 566.503 715.296 571.692C632.322 587.26 452.258 624.105 395.797 646.938Z" fill="#F5F6FB" fill-opacity="0.5"/>
<path d="M592 578.733C534.608 624.981 365.613 639.966 282.5 649C360.397 657.642 528.647 667.826 595 614.233C647 572.233 862.102 570.428 932 561C856.885 554.322 643.5 537.233 592 578.733Z" fill="#E5E7F1" fill-opacity="0.5"/>
</svg>
